<?xml version="1.0" encoding="UTF-8"?>
<svg id="Layer_1" data-name="Layer 1" xmlns="http://www.w3.org/2000/svg" viewBox="0 0 970.75 244.64">
  <defs>
    <style>
      .cls-1, .cls-2, .cls-3, .cls-4 {
        stroke: #07255b;
        stroke-miterlimit: 10;
      }

      .cls-1, .cls-2, .cls-5 {
        fill: #07255b;
      }

      .cls-1, .cls-4 {
        stroke-linecap: round;
        stroke-width: 8px;
      }

      .cls-3, .cls-4 {
        fill: none;
      }
    </style>
  </defs>
  <path class="cls-4" d="M87.89,62.61c1.29,5.57,3.56,13.64,7.71,22.77,9.06,19.94,20.43,30.36,29.43,41.34,9.27,11.31,20.51,28.71,28.38,55.01"/>
  <path class="cls-4" d="M162.17,21.62c-.76,9.93-2.62,23.47-7.36,38.89-4.02,13.07-9.91,32.22-24.88,50.45-19.25,23.44-43.81,33.55-70.42,44.5-12.28,5.05-22.89,8.38-30.48,10.51"/>
  <path class="cls-4" d="M118.11,122.17c-12.43,14.82-18.89,28.48-22.51,38.54-10.5,29.16-8.53,59.67-19.71,62.01-1.17.25-2.18.12-2.8,0"/>
  <path class="cls-4" d="M120.65,122.17c-12.25-9.58-28.63-20.66-49.23-30.48-20.3-9.68-38.95-15.42-53.96-18.92"/>
  <path class="cls-4" d="M223.49,69.62c-15.3,4.52-33.41,11.14-52.91,21.02-20.31,10.29-36.93,21.49-49.93,31.53"/>
  <path class="cls-4" d="M122.1,121.06c6.82,9.52,17.93,21.64,34.81,29.14,7.43,3.3,13.73,4.7,22.77,6.66,10.87,2.36,26.35,4.88,45.55,5.26"/>
  <path class="cls-4" d="M118.11,122.17c-4.34-3.35-10.72-8.44-18.31-15.07-4.6-4.02-5.46-4.95-7.36-5.61-9.27-3.19-21.02,7.9-32.93,19.56-11.48,11.24-25.13,24.98-40.29,41.05"/>
  <line class="cls-4" x1="218.23" y1="157.91" x2="155.16" y2="95.9"/>
  <line class="cls-4" x1="82.29" y1="17.41" x2="19.22" y2="76.28"/>
  <line class="cls-4" x1="163.92" y1="17.41" x2="77.78" y2="21.62"/>
  <line class="cls-4" x1="223.49" y1="80.48" x2="160.42" y2="14.61"/>
  <line class="cls-4" x1="220.33" y1="157.91" x2="219.46" y2="76.28"/>
  <line class="cls-4" x1="159.54" y1="221.33" x2="224.36" y2="157.91"/>
  <line class="cls-4" x1="162.17" y1="220.01" x2="80.73" y2="219"/>
  <line class="cls-4" x1="19.22" y1="155.46" x2="82.29" y2="219.92"/>
  <line class="cls-4" x1="21.85" y1="76.28" x2="21.85" y2="157.91"/>
  <circle class="cls-2" cx="163.92" cy="18.27" r="17.77"/>
  <circle class="cls-2" cx="77.78" cy="18.27" r="17.77"/>
  <circle class="cls-2" cx="18.27" cy="75.07" r="17.77"/>
  <circle class="cls-2" cx="19.22" cy="162.11" r="17.77"/>
  <circle class="cls-2" cx="77.78" cy="221.33" r="17.77"/>
  <circle class="cls-1" cx="162.17" cy="222.87" r="17.77"/>
  <circle class="cls-3" cx="163.92" cy="220.03" r="17.77"/>
  <circle class="cls-2" cx="221.38" cy="162.11" r="17.77"/>
  <circle class="cls-2" cx="221.38" cy="76.28" r="17.77"/>
  <circle class="cls-1" cx="122.1" cy="63.39" r="7.56"/>
  <circle class="cls-1" cx="120.65" cy="179.88" r="7.56"/>
  <g>
    <path class="cls-5" d="M268.18,165.15v-92.75h36.72c6.75,0,12.13,1.22,16.13,3.65,4,2.43,6.91,5.74,8.71,9.92,1.8,4.19,2.7,8.89,2.7,14.11,0,5.85-.97,11.05-2.9,15.59-1.94,4.55-4.93,8.03-8.98,10.46l15.12,39.01h-19.58l-12.69-34.02h-16.74v34.02h-18.5ZM286.68,115.88h15.66c3.96,0,6.84-1.3,8.64-3.92,1.8-2.61,2.7-6.16,2.7-10.67,0-2.97-.38-5.44-1.15-7.42-.77-1.98-2-3.49-3.71-4.52-1.71-1.03-4.01-1.55-6.88-1.55h-15.25v28.08Z"/>
    <path class="cls-5" d="M369.03,166.77c-6.21,0-11.39-1.28-15.52-3.85-4.14-2.57-7.27-6.59-9.38-12.08-2.12-5.49-3.17-12.56-3.17-21.2s1.06-15.82,3.17-21.26c2.11-5.44,5.24-9.47,9.38-12.08,4.14-2.61,9.31-3.92,15.52-3.92s11.38,1.31,15.52,3.92c4.14,2.61,7.27,6.64,9.38,12.08,2.11,5.45,3.17,12.53,3.17,21.26s-1.06,15.71-3.17,21.2c-2.12,5.49-5.24,9.52-9.38,12.08-4.14,2.57-9.31,3.85-15.52,3.85ZM369.03,153.27c2.61,0,4.73-.65,6.34-1.96,1.62-1.3,2.79-3.42,3.51-6.34.72-2.92,1.08-6.73,1.08-11.41v-7.83c0-4.77-.36-8.59-1.08-11.48-.72-2.88-1.89-5-3.51-6.35-1.62-1.35-3.74-2.02-6.34-2.02s-4.73.68-6.35,2.02c-1.62,1.35-2.79,3.47-3.51,6.35-.72,2.88-1.08,6.71-1.08,11.48v7.83c0,4.68.36,8.48,1.08,11.41.72,2.93,1.89,5.04,3.51,6.34,1.62,1.31,3.73,1.96,6.35,1.96Z"/>
    <path class="cls-5" d="M433.56,166.77c-6.21,0-11.39-1.28-15.52-3.85-4.14-2.57-7.27-6.59-9.38-12.08-2.12-5.49-3.17-12.56-3.17-21.2s1.06-15.82,3.17-21.26c2.11-5.44,5.24-9.47,9.38-12.08,4.14-2.61,9.31-3.92,15.52-3.92s11.38,1.31,15.52,3.92c4.14,2.61,7.27,6.64,9.38,12.08,2.11,5.45,3.17,12.53,3.17,21.26s-1.06,15.71-3.17,21.2c-2.12,5.49-5.24,9.52-9.38,12.08-4.14,2.57-9.31,3.85-15.52,3.85ZM433.56,153.27c2.61,0,4.73-.65,6.34-1.96,1.62-1.3,2.79-3.42,3.51-6.34.72-2.92,1.08-6.73,1.08-11.41v-7.83c0-4.77-.36-8.59-1.08-11.48-.72-2.88-1.89-5-3.51-6.35-1.62-1.35-3.74-2.02-6.34-2.02s-4.73.68-6.35,2.02c-1.62,1.35-2.79,3.47-3.51,6.35-.72,2.88-1.08,6.71-1.08,11.48v7.83c0,4.68.36,8.48,1.08,11.41.72,2.93,1.89,5.04,3.51,6.34,1.62,1.31,3.73,1.96,6.35,1.96Z"/>
    <path class="cls-5" d="M489.04,166.77c-3.6,0-6.48-.7-8.64-2.09s-3.71-3.33-4.66-5.8c-.94-2.47-1.42-5.33-1.42-8.57v-42.8h-6.48v-13.5h7.02l2.97-20.65h13.23v20.65h9.45v13.5h-9.45v39.69c0,1.98.29,3.47.88,4.46.59.99,1.73,1.49,3.44,1.49h5.13v11.47c-1.17.45-2.43.83-3.78,1.15-1.35.31-2.68.56-3.98.74-1.3.18-2.54.27-3.71.27Z"/>
    <path class="cls-5" d="M511.04,165.15v-92.75h17.42l24.17,46.17c.36.72.79,1.6,1.28,2.63.49,1.04.99,2.14,1.49,3.31.49,1.17.88,2.21,1.15,3.11h.67c-.09-1.71-.13-3.35-.13-4.93v-50.29h17.68v92.75h-17.42l-24.43-46.84c-.54-1.26-1.17-2.74-1.89-4.46-.72-1.71-1.35-3.38-1.89-5h-.54v56.29h-17.55Z"/>
    <path class="cls-5" d="M614.59,166.77c-6.39,0-11.63-1.26-15.73-3.78-4.1-2.52-7.13-6.52-9.11-12.01-1.98-5.49-2.97-12.6-2.97-21.33s1.03-16.22,3.11-21.67c2.07-5.44,5.2-9.4,9.38-11.88,4.18-2.47,9.43-3.71,15.73-3.71,5.85,0,10.73,1.13,14.65,3.38,3.92,2.25,6.84,5.96,8.77,11.14,1.93,5.18,2.9,12.17,2.9,20.99v5.13h-37.39c.09,4.68.45,8.55,1.08,11.61.63,3.06,1.71,5.33,3.24,6.82,1.53,1.48,3.69,2.23,6.48,2.23,1.53,0,2.9-.25,4.12-.74,1.22-.49,2.25-1.28,3.11-2.36.85-1.08,1.51-2.5,1.96-4.25.45-1.75.68-3.8.68-6.14h16.47c0,4.5-.59,8.42-1.75,11.74-1.17,3.33-2.9,6.1-5.2,8.3-2.3,2.21-5.06,3.85-8.3,4.93s-6.98,1.62-11.21,1.62ZM604.06,123.17h19.98c0-3.24-.18-5.96-.54-8.17-.36-2.2-.88-4.03-1.55-5.47-.67-1.44-1.62-2.47-2.83-3.1-1.21-.63-2.68-.94-4.39-.94-2.52,0-4.55.67-6.08,2.02-1.53,1.35-2.66,3.31-3.38,5.87-.72,2.57-1.13,5.83-1.21,9.79Z"/>
    <path class="cls-5" d="M662.38,165.15l-16.33-71.15h17.28l5.94,33.89c.27,1.53.54,3.31.81,5.33.27,2.03.54,3.96.81,5.81.27,1.85.49,3.4.67,4.66h.95c.18-1.71.41-3.58.67-5.6.27-2.02.54-3.96.81-5.8.27-1.84.49-3.31.67-4.39l5.8-33.89h18.23l5.8,33.89c.27,1.35.54,2.99.81,4.93.27,1.94.54,3.85.81,5.74.27,1.89.49,3.6.67,5.13h.95c.18-1.44.38-3.13.61-5.06.22-1.93.49-3.85.81-5.74.31-1.89.56-3.51.74-4.86l6.08-34.02h15.79l-16.33,71.15h-17.82l-5.81-32.8c-.27-1.62-.56-3.42-.88-5.4-.32-1.98-.61-3.96-.88-5.94-.27-1.98-.5-3.69-.67-5.13h-.95c-.09,1.17-.27,2.7-.54,4.59-.27,1.89-.54,3.87-.81,5.94-.27,2.07-.63,4.05-1.08,5.94l-5.67,32.8h-17.96Z"/>
    <path class="cls-5" d="M764.44,166.77c-6.21,0-11.39-1.28-15.52-3.85-4.14-2.57-7.27-6.59-9.38-12.08-2.12-5.49-3.17-12.56-3.17-21.2s1.06-15.82,3.17-21.26c2.11-5.44,5.24-9.47,9.38-12.08,4.14-2.61,9.31-3.92,15.52-3.92s11.38,1.31,15.53,3.92c4.14,2.61,7.27,6.64,9.38,12.08,2.11,5.45,3.17,12.53,3.17,21.26s-1.06,15.71-3.17,21.2c-2.12,5.49-5.24,9.52-9.38,12.08-4.14,2.57-9.32,3.85-15.53,3.85ZM764.44,153.27c2.61,0,4.73-.65,6.35-1.96,1.62-1.3,2.79-3.42,3.51-6.34.72-2.92,1.08-6.73,1.08-11.41v-7.83c0-4.77-.36-8.59-1.08-11.48-.72-2.88-1.89-5-3.51-6.35-1.62-1.35-3.74-2.02-6.35-2.02s-4.72.68-6.34,2.02c-1.62,1.35-2.79,3.47-3.51,6.35-.72,2.88-1.08,6.71-1.08,11.48v7.83c0,4.68.36,8.48,1.08,11.41.72,2.93,1.89,5.04,3.51,6.34,1.62,1.31,3.73,1.96,6.34,1.96Z"/>
    <path class="cls-5" d="M803.45,165.15v-71.15h13.91l1.08,10.12h.67c.9-2.43,1.96-4.5,3.17-6.21,1.22-1.71,2.63-3.06,4.25-4.05,1.62-.99,3.46-1.49,5.54-1.49.99,0,1.91.09,2.77.27.85.18,1.6.41,2.23.68v16.74h-5.54c-1.89,0-3.58.38-5.06,1.15-1.49.77-2.7,1.89-3.65,3.38-.94,1.49-1.64,3.38-2.09,5.67-.45,2.3-.67,5.02-.67,8.17v36.72h-16.61Z"/>
    <path class="cls-5" d="M843.95,165.15v-97.74h16.61v54.81l18.76-28.22h18.22l-19.3,27.68,20.12,43.47h-18.36l-12.83-28.48-6.61,8.5v19.98h-16.61Z"/>
  </g>
</svg>